P3
8 11
9
9 9 9  9 9 9  9 9 9  9 9 9  9 9 9  9 9 9  9 9 9  9 9 9
9 9 9  0 0 9  9 9 9  9 9 9  9 9 9  9 9 9  9 9 0  9 9 9
9 9 9  0 1 9  9 9 9  9 9 9  9 9 9  9 8 0  9 9 9  9 9 9
9 9 9  0 2 9  9 9 9  9 9 9  9 7 0  9 9 9  9 9 9  9 9 9
9 9 9  0 3 9  9 9 9  9 6 0  9 9 9  9 9 9  9 9 9  9 9 9
9 9 9  0 4 9  9 5 0  9 9 9  9 9 9  9 9 9  9 9 9  9 9 9
9 9 9  0 5 9  9 9 9  9 4 0  9 9 9  9 9 9  9 9 9  9 9 9
9 9 9  0 6 9  9 9 9  9 9 9  9 3 0  9 9 9  9 9 9  9 9 9
9 9 9  0 7 9  9 9 9  9 9 9  9 9 9  9 2 0  9 9 9  9 9 9
9 9 9  0 8 9  9 9 9  9 9 9  9 9 9  9 9 9  9 1 0  9 9 9
9 9 9  9 9 9  9 9 9  9 9 9  9 9 9  9 9 9  9 9 9  9 9 9
